<?xml version="1.0" encoding="UTF-8"?>
<svg version="1.1" xmlns="http://www.w3.org/2000/svg" width="500" height="500">
<path d="M0 0 C165 0 330 0 500 0 C500 165 500 330 500 500 C335 500 170 500 0 500 C0 335 0 170 0 0 Z " fill="#FEFEFE" transform="translate(0,0)"/>
<path d="M0 0 C1.59389934 -0.00576172 1.59389934 -0.00576172 3.21999866 -0.01163983 C4.38642074 -0.01077335 5.55284281 -0.00990687 6.75461102 -0.00901413 C8.614429 -0.01347081 8.614429 -0.01347081 10.51181906 -0.01801753 C13.95536112 -0.02519881 17.39885328 -0.02787692 20.84239924 -0.028615 C24.55552296 -0.03046608 28.26863588 -0.03801366 31.98175335 -0.04475021 C40.10156075 -0.05833141 48.22136322 -0.06435781 56.34118009 -0.06876087 C61.41077132 -0.07152343 66.48036065 -0.07576078 71.5499506 -0.08026505 C85.58515109 -0.092457 99.62035005 -0.10275674 113.65555573 -0.10614014 C114.55380813 -0.1063597 115.45206053 -0.10657927 116.3775327 -0.10680549 C117.72813806 -0.10713291 117.72813806 -0.10713291 119.10602838 -0.10746694 C120.9305956 -0.1079104 122.75516282 -0.10835697 124.57973003 -0.10880661 C125.9373031 -0.10913875 125.9373031 -0.10913875 127.32230189 -0.10947761 C141.98989011 -0.11342629 156.65742867 -0.13088277 171.3249977 -0.15416613 C186.38257536 -0.17787577 201.44012809 -0.1903418 216.49772471 -0.19150805 C224.95260109 -0.19242499 233.40741275 -0.19818197 241.86227131 -0.21632767 C249.06115163 -0.23172336 256.25994723 -0.23685224 263.45884088 -0.22858956 C267.13160801 -0.22468128 270.80420449 -0.22562127 274.47695065 -0.23964691 C278.45930771 -0.25471583 282.44142425 -0.24652464 286.42380047 -0.23606491 C287.58353038 -0.24412132 288.74326029 -0.25217772 289.93813354 -0.26047826 C299.34309304 -0.2025785 306.37161635 1.96079014 313.38124371 8.66267776 C319.37666496 15.16017863 321.23789141 21.98157878 321.16063213 30.6256752 C321.16531211 31.44287098 321.16999208 32.26006676 321.17481387 33.10202605 C321.18670966 35.82024729 321.17732797 38.53795929 321.1678648 41.25618362 C321.17193294 43.21318225 321.17727618 45.17017857 321.18379498 47.12717056 C321.19744637 52.42884245 321.19217862 57.73033878 321.18265772 63.03201365 C321.1750488 68.58782589 321.18211026 74.14362335 321.18681622 79.69943619 C321.19227062 89.02957729 321.18509086 98.3596471 321.17079449 107.68977737 C321.1544734 118.46548967 321.15975387 129.24103162 321.1762737 140.01673979 C321.18990322 149.27897564 321.19180091 158.54116031 321.1839577 167.80340296 C321.17928864 173.33069528 321.17863515 178.85790764 321.18856716 184.38519478 C321.19725567 189.58338297 321.19118042 194.78135234 321.17388439 199.97951698 C321.16992942 201.883395 321.17103659 203.78729155 321.17767239 205.69116211 C321.18591737 208.29775265 321.17553104 210.90364985 321.16063213 213.51019669 C321.1673243 214.25671381 321.17401646 215.00323094 321.18091142 215.7723698 C321.08271939 224.67960338 318.14986718 232.80260663 311.77968121 239.13142776 C303.8555828 244.85438773 296.31638846 245.281922 286.82704449 245.24495316 C285.34806431 245.2451722 285.34806431 245.2451722 283.83920574 245.24539566 C280.59277905 245.24470115 277.34641033 245.23693038 274.09999371 245.22908401 C271.84412448 245.2272182 269.58825484 245.22579507 267.33238506 245.2247963 C261.40422217 245.22098404 255.4760839 245.21116477 249.54793072 245.20009232 C242.43014821 245.18804869 235.31235746 245.18346981 228.19456768 245.17763901 C217.38958841 245.16795234 206.58466314 245.14878671 195.77968121 245.13142776 C195.77968121 264.60142776 195.77968121 284.07142776 195.77968121 304.13142776 C205.34968121 304.13142776 214.91968121 304.13142776 224.77968121 304.13142776 C226.77968121 306.13142776 226.77968121 306.13142776 226.96718121 308.69392776 C226.77968121 311.13142776 226.77968121 311.13142776 225.77968121 312.13142776 C223.79503928 312.23032559 221.80682467 312.25775041 219.81972027 312.25841141 C217.87615643 312.26264114 217.87615643 312.26264114 215.89332867 312.26695633 C214.44398771 312.26501173 212.99464689 312.26296354 211.54530621 312.2608223 C210.02955871 312.26217628 208.51381154 312.26395619 206.99806499 312.26613235 C202.87008139 312.27070708 198.74212267 312.26891697 194.6141386 312.26575327 C190.30375887 312.26322987 185.99338133 312.26556715 181.68300152 312.26713943 C174.44308875 312.26896119 167.20318618 312.26655467 159.96327496 312.26179886 C151.58074026 312.25635623 143.19822987 312.25811888 134.81569576 312.26362526 C127.6318532 312.26815623 120.44801799 312.26880703 113.26417446 312.26618659 C108.96778496 312.26462373 104.6714069 312.26443032 100.37501812 312.26772308 C96.33677304 312.27060156 92.29855946 312.26862655 88.2603178 312.26282883 C86.77395969 312.2615011 85.28759895 312.26189556 83.80124187 312.26409149 C81.78070956 312.26680247 79.76017149 312.26280864 77.73964214 312.25841141 C76.03949963 312.25784587 76.03949963 312.25784587 74.3050108 312.25726891 C71.77968121 312.13142776 71.77968121 312.13142776 70.77968121 311.13142776 C70.59218121 308.69392776 70.59218121 308.69392776 70.77968121 306.13142776 C71.43968121 305.47142776 72.09968121 304.81142776 72.77968121 304.13142776 C81.02968121 304.13142776 89.27968121 304.13142776 97.77968121 304.13142776 C97.77968121 284.66142776 97.77968121 265.19142776 97.77968121 245.13142776 C90.29280621 245.17783401 82.80593121 245.22424026 75.09218121 245.27205276 C70.34346939 245.2924957 65.59481197 245.31175186 60.84608746 245.32674026 C53.31195562 245.35063309 45.77801861 245.37887074 38.24403667 245.43318558 C32.16860604 245.47671017 26.0933844 245.50057919 20.01780987 245.51093674 C17.70220431 245.51831615 15.38660993 245.53272641 13.07109356 245.55434799 C9.8226648 245.58346901 6.57509491 245.58738001 3.32655621 245.58552933 C2.37349087 245.59991043 1.42042553 245.61429153 0.43847942 245.62910843 C-7.79060816 245.57852177 -14.26952201 242.9213922 -20.22031879 237.13142776 C-25.97544483 229.6363799 -27.52625302 221.93622767 -27.48774433 212.6751442 C-27.49227544 211.86203197 -27.49680656 211.04891974 -27.50147498 210.21116775 C-27.51405979 207.50687576 -27.51250247 204.80278668 -27.51084614 202.09846878 C-27.51683497 200.15132261 -27.52364133 198.20417882 -27.53120136 196.25703812 C-27.54882951 190.98226963 -27.55355532 185.70756607 -27.55483294 180.43277097 C-27.55625656 177.13471954 -27.5605301 173.83668451 -27.56582737 170.53863716 C-27.58431503 159.02585556 -27.59249931 147.5131202 -27.59092426 136.00032425 C-27.58972226 125.27911768 -27.61083947 114.55811223 -27.64241159 103.83695656 C-27.66858012 94.62143464 -27.67929136 85.4059784 -27.67801344 76.19041961 C-27.67750411 70.69102934 -27.68317203 65.191818 -27.70436954 59.69246483 C-27.72376229 54.52050991 -27.72386918 49.3489045 -27.70933628 44.1769371 C-27.70724859 42.28272553 -27.71194667 40.38849201 -27.7240572 38.49431801 C-27.80004735 25.78226504 -27.04027681 16.50239112 -18.08750629 6.85799026 C-12.73570958 1.90925774 -7.19293259 0.00976508 0 0 Z " fill="#E9E1DC" transform="translate(103.22031879425049,99.86857223510742)"/>
<path d="M0 0 C1.59389934 -0.00576172 1.59389934 -0.00576172 3.21999866 -0.01163983 C4.38642074 -0.01077335 5.55284281 -0.00990687 6.75461102 -0.00901413 C8.614429 -0.01347081 8.614429 -0.01347081 10.51181906 -0.01801753 C13.95536112 -0.02519881 17.39885328 -0.02787692 20.84239924 -0.028615 C24.55552296 -0.03046608 28.26863588 -0.03801366 31.98175335 -0.04475021 C40.10156075 -0.05833141 48.22136322 -0.06435781 56.34118009 -0.06876087 C61.41077132 -0.07152343 66.48036065 -0.07576078 71.5499506 -0.08026505 C85.58515109 -0.092457 99.62035005 -0.10275674 113.65555573 -0.10614014 C114.55380813 -0.1063597 115.45206053 -0.10657927 116.3775327 -0.10680549 C117.72813806 -0.10713291 117.72813806 -0.10713291 119.10602838 -0.10746694 C120.9305956 -0.1079104 122.75516282 -0.10835697 124.57973003 -0.10880661 C125.9373031 -0.10913875 125.9373031 -0.10913875 127.32230189 -0.10947761 C141.98989011 -0.11342629 156.65742867 -0.13088277 171.3249977 -0.15416613 C186.38257536 -0.17787577 201.44012809 -0.1903418 216.49772471 -0.19150805 C224.95260109 -0.19242499 233.40741275 -0.19818197 241.86227131 -0.21632767 C249.06115163 -0.23172336 256.25994723 -0.23685224 263.45884088 -0.22858956 C267.13160801 -0.22468128 270.80420449 -0.22562127 274.47695065 -0.23964691 C278.45930771 -0.25471583 282.44142425 -0.24652464 286.42380047 -0.23606491 C287.58353038 -0.24412132 288.74326029 -0.25217772 289.93813354 -0.26047826 C299.34309304 -0.2025785 306.37161635 1.96079014 313.38124371 8.66267776 C319.37666496 15.16017863 321.23789141 21.98157878 321.16063213 30.6256752 C321.16531211 31.44287098 321.16999208 32.26006676 321.17481387 33.10202605 C321.18670966 35.82024729 321.17732797 38.53795929 321.1678648 41.25618362 C321.17193294 43.21318225 321.17727618 45.17017857 321.18379498 47.12717056 C321.19744637 52.42884245 321.19217862 57.73033878 321.18265772 63.03201365 C321.1750488 68.58782589 321.18211026 74.14362335 321.18681622 79.69943619 C321.19227062 89.02957729 321.18509086 98.3596471 321.17079449 107.68977737 C321.1544734 118.46548967 321.15975387 129.24103162 321.1762737 140.01673979 C321.18990322 149.27897564 321.19180091 158.54116031 321.1839577 167.80340296 C321.17928864 173.33069528 321.17863515 178.85790764 321.18856716 184.38519478 C321.19725567 189.58338297 321.19118042 194.78135234 321.17388439 199.97951698 C321.16992942 201.883395 321.17103659 203.78729155 321.17767239 205.69116211 C321.18591737 208.29775265 321.17553104 210.90364985 321.16063213 213.51019669 C321.1673243 214.25671381 321.17401646 215.00323094 321.18091142 215.7723698 C321.08271939 224.67960338 318.14986718 232.80260663 311.77968121 239.13142776 C303.8555828 244.85438773 296.31638846 245.281922 286.82704449 245.24495316 C285.34806431 245.2451722 285.34806431 245.2451722 283.83920574 245.24539566 C280.59277905 245.24470115 277.34641033 245.23693038 274.09999371 245.22908401 C271.84412448 245.2272182 269.58825484 245.22579507 267.33238506 245.2247963 C261.40422217 245.22098404 255.4760839 245.21116477 249.54793072 245.20009232 C242.43014821 245.18804869 235.31235746 245.18346981 228.19456768 245.17763901 C217.38958841 245.16795234 206.58466314 245.14878671 195.77968121 245.13142776 C195.77968121 264.60142776 195.77968121 284.07142776 195.77968121 304.13142776 C205.34968121 304.13142776 214.91968121 304.13142776 224.77968121 304.13142776 C226.77968121 306.13142776 226.77968121 306.13142776 226.96718121 308.69392776 C226.77968121 311.13142776 226.77968121 311.13142776 225.77968121 312.13142776 C223.79503928 312.23032559 221.80682467 312.25775041 219.81972027 312.25841141 C217.87615643 312.26264114 217.87615643 312.26264114 215.89332867 312.26695633 C214.44398771 312.26501173 212.99464689 312.26296354 211.54530621 312.2608223 C210.02955871 312.26217628 208.51381154 312.26395619 206.99806499 312.26613235 C202.87008139 312.27070708 198.74212267 312.26891697 194.6141386 312.26575327 C190.30375887 312.26322987 185.99338133 312.26556715 181.68300152 312.26713943 C174.44308875 312.26896119 167.20318618 312.26655467 159.96327496 312.26179886 C151.58074026 312.25635623 143.19822987 312.25811888 134.81569576 312.26362526 C127.6318532 312.26815623 120.44801799 312.26880703 113.26417446 312.26618659 C108.96778496 312.26462373 104.6714069 312.26443032 100.37501812 312.26772308 C96.33677304 312.27060156 92.29855946 312.26862655 88.2603178 312.26282883 C86.77395969 312.2615011 85.28759895 312.26189556 83.80124187 312.26409149 C81.78070956 312.26680247 79.76017149 312.26280864 77.73964214 312.25841141 C76.03949963 312.25784587 76.03949963 312.25784587 74.3050108 312.25726891 C71.77968121 312.13142776 71.77968121 312.13142776 70.77968121 311.13142776 C70.59218121 308.69392776 70.59218121 308.69392776 70.77968121 306.13142776 C71.43968121 305.47142776 72.09968121 304.81142776 72.77968121 304.13142776 C81.02968121 304.13142776 89.27968121 304.13142776 97.77968121 304.13142776 C97.77968121 284.66142776 97.77968121 265.19142776 97.77968121 245.13142776 C90.29280621 245.17783401 82.80593121 245.22424026 75.09218121 245.27205276 C70.34346939 245.2924957 65.59481197 245.31175186 60.84608746 245.32674026 C53.31195562 245.35063309 45.77801861 245.37887074 38.24403667 245.43318558 C32.16860604 245.47671017 26.0933844 245.50057919 20.01780987 245.51093674 C17.70220431 245.51831615 15.38660993 245.53272641 13.07109356 245.55434799 C9.8226648 245.58346901 6.57509491 245.58738001 3.32655621 245.58552933 C2.37349087 245.59991043 1.42042553 245.61429153 0.43847942 245.62910843 C-7.79060816 245.57852177 -14.26952201 242.9213922 -20.22031879 237.13142776 C-25.97544483 229.6363799 -27.52625302 221.93622767 -27.48774433 212.6751442 C-27.49227544 211.86203197 -27.49680656 211.04891974 -27.50147498 210.21116775 C-27.51405979 207.50687576 -27.51250247 204.80278668 -27.51084614 202.09846878 C-27.51683497 200.15132261 -27.52364133 198.20417882 -27.53120136 196.25703812 C-27.54882951 190.98226963 -27.55355532 185.70756607 -27.55483294 180.43277097 C-27.55625656 177.13471954 -27.5605301 173.83668451 -27.56582737 170.53863716 C-27.58431503 159.02585556 -27.59249931 147.5131202 -27.59092426 136.00032425 C-27.58972226 125.27911768 -27.61083947 114.55811223 -27.64241159 103.83695656 C-27.66858012 94.62143464 -27.67929136 85.4059784 -27.67801344 76.19041961 C-27.67750411 70.69102934 -27.68317203 65.191818 -27.70436954 59.69246483 C-27.72376229 54.52050991 -27.72386918 49.3489045 -27.70933628 44.1769371 C-27.70724859 42.28272553 -27.71194667 40.38849201 -27.7240572 38.49431801 C-27.80004735 25.78226504 -27.04027681 16.50239112 -18.08750629 6.85799026 C-12.73570958 1.90925774 -7.19293259 0.00976508 0 0 Z M-14.65781879 15.75642776 C-15.13090473 16.34681839 -15.60399067 16.93720901 -16.09141254 17.54549026 C-18.56979735 21.02723501 -18.34368198 23.6173184 -18.34057331 27.86375809 C-18.34142933 28.56206238 -18.34228535 29.26036667 -18.3431673 29.9798317 C-18.34482888 32.33849475 -18.33928854 34.69708756 -18.33384418 37.05574417 C-18.33353801 38.76809245 -18.33367107 40.48044086 -18.33420944 42.19278908 C-18.33443577 46.79015908 -18.328628 51.38750321 -18.32159901 55.9848671 C-18.31591603 60.29438232 -18.31563654 64.60389115 -18.31492329 68.91341019 C-18.30967003 81.52775282 -18.29570896 94.14209062 -18.28281879 106.75642776 C-18.26219379 134.93017776 -18.24156879 163.10392776 -18.22031879 192.13142776 C48.43968121 192.13142776 115.09968121 192.13142776 183.77968121 192.13142776 C183.77968121 176.95142776 183.77968121 161.77142776 183.77968121 146.13142776 C182.04796552 144.39971208 179.51054321 144.68192139 177.14686871 144.40095901 C169.32226226 143.24488142 162.23420631 140.65904814 154.90468121 137.81892776 C153.01656486 137.09923888 151.12708358 136.38328496 149.23689556 135.66905594 C147.98307699 135.19500585 146.73017704 134.71851869 145.47822857 134.23955154 C142.23213936 133.00816533 138.97831129 131.85368347 135.66932964 130.80183792 C134.99570385 130.58679108 134.32207806 130.37174423 133.62803936 130.15018082 C131.76101759 129.56192473 129.8893723 128.98840109 128.01747417 128.41585159 C123.88479636 126.77642934 120.76365053 124.85337407 118.52968121 120.94392776 C117.77968121 118.13142776 117.77968121 118.13142776 117.72499371 116.09236526 C117.57023196 111.0884022 116.78956209 108.61992678 113.15468121 105.06892776 C111.69724289 103.75543398 110.23893266 102.44290692 108.77968121 101.13142776 C107.69513203 99.94284509 106.6322222 98.73414533 105.59218121 97.50642776 C103.29318684 94.7982447 100.90651181 92.22123563 98.41639996 89.69002151 C97.81916119 89.07401077 97.22192242 88.45800003 96.6065855 87.8233223 C95.40255721 86.58470011 94.18673398 85.35741957 92.95863628 84.14265823 C91.3996221 82.52538221 89.9924382 81.02288893 88.77968121 79.13142776 C88.90468121 76.20564651 88.90468121 76.20564651 89.77968121 74.13142776 C92.7993859 73.83886122 94.28550911 73.76709697 96.77186871 75.60017776 C97.39319683 76.27049026 98.01452496 76.94080276 98.65468121 77.63142776 C99.34690777 78.36877151 100.03913433 79.10611526 100.75233746 79.86580276 C103.11350608 82.50448832 105.46304539 85.14987449 107.77186871 87.83455276 C112.01221102 92.68537238 116.41343828 97.39409367 120.77968121 102.13142776 C121.51057964 101.81431839 122.24147808 101.49720901 122.99452496 101.17049026 C134.08198108 97.03407606 144.08012727 102.75325527 154.20643902 107.07088089 C158.8659832 108.99128506 163.62982289 110.60482889 168.39931011 112.22761917 C173.54091961 113.99151043 173.54091961 113.99151043 175.58970928 115.19212723 C178.54960295 116.46165479 181.00813185 116.38328066 184.22548199 116.38679886 C185.53429333 116.39375778 186.84310467 116.40071671 188.19157696 116.40788651 C188.88903152 116.40720547 189.58648609 116.40652443 190.30507565 116.40582275 C192.50104966 116.40485377 194.69653911 116.417846 196.89244366 116.43480301 C203.13476525 116.48094294 209.37703865 116.50564534 215.61952496 116.51228714 C219.44339726 116.51733562 223.26676706 116.54175793 227.09046841 116.57761383 C228.53911969 116.58734048 229.98784076 116.58978319 231.43651485 116.58444214 C242.01843811 116.54728125 251.50838584 117.44216935 259.65468121 124.88142776 C260.35335308 125.49502151 261.05202496 126.10861526 261.77186871 126.74080276 C267.6951492 133.79342468 269.43026974 142.46428712 271.65468121 151.19392776 C272.00027222 152.52259824 272.34671754 153.85104678 272.69398785 155.17927933 C273.56557073 158.52061276 274.42732578 161.86438361 275.28572369 165.20912552 C276.32630933 169.25870476 277.37820866 173.30535217 278.43056011 177.35188675 C278.94512555 179.33365043 279.45664396 181.31620841 279.9647398 183.29964066 C280.1911314 184.17741165 280.417523 185.05518265 280.65077496 185.95955276 C280.84598736 186.72171097 281.04119976 187.48386917 281.24232769 188.26912308 C281.73852872 190.20055623 281.73852872 190.20055623 282.77968121 192.13142776 C292.67968121 192.13142776 302.57968121 192.13142776 312.77968121 192.13142776 C312.89548115 170.2347867 312.98468239 148.33821953 313.03874207 126.44133377 C313.06451136 116.27396081 313.09963759 106.10678174 313.15687847 95.93953323 C313.20675237 87.0765892 313.23898149 78.21378561 313.25012368 69.35070515 C313.25663568 64.65875295 313.27191415 59.96720248 313.30833149 55.27537918 C313.34235401 50.85614805 313.3527216 46.43748283 313.34521961 42.01813316 C313.34659137 40.39922952 313.35648683 38.7803063 313.37570858 37.16151619 C313.56237357 25.2281762 313.56237357 25.2281762 307.77968121 15.13142776 C307.18155621 14.36830276 306.58343121 13.60517776 305.96718121 12.81892776 C299.16442377 7.57108631 291.73611435 7.70022924 283.52028179 7.74374771 C282.29810876 7.73836217 281.07593574 7.73297664 279.81672716 7.7274279 C276.44100428 7.71563046 273.06577749 7.71720348 269.69007468 7.72459471 C266.04310668 7.72933532 262.39619101 7.71680875 258.74923992 7.7065773 C251.61147254 7.68940217 244.47379325 7.68854651 237.33601058 7.6937902 C231.53391511 7.69783507 225.73184563 7.69638459 219.9297514 7.69104195 C219.10331209 7.69029352 218.27687278 7.6895451 217.42538986 7.688774 C215.74638497 7.6872425 214.06738009 7.68570415 212.38837522 7.68415903 C196.65204205 7.67043897 180.91575864 7.6758685 165.17942661 7.68734425 C150.78756913 7.69727899 136.39584017 7.68433093 122.00400251 7.66041005 C107.21861498 7.63602055 92.43328732 7.62641064 77.64788008 7.63306278 C69.35007552 7.63655496 61.05236983 7.63432285 52.7545805 7.61681175 C45.69193608 7.60209175 38.62946018 7.60145178 31.56681907 7.61888266 C27.96474285 7.62739625 24.36296771 7.62953374 20.76090717 7.61423111 C16.85347746 7.59783684 12.94651252 7.6125282 9.03908062 7.63022232 C7.90444677 7.62061731 6.76981292 7.61101231 5.60079622 7.60111624 C-2.4769385 7.67643688 -9.39712126 8.99054481 -14.65781879 15.75642776 Z " fill="#5F4528" transform="translate(103.22031879425049,99.86857223510742)"/>
<path d="M0 0 C103.29 0 206.58 0 313 0 C313 24 313 24 307 32 C300.47510648 36.43398145 294.81890332 36.5784443 287.07554626 36.53485107 C285.88941964 36.5439133 284.70329302 36.55297553 283.48122317 36.56231236 C280.20618578 36.58318546 276.93170374 36.58626403 273.65662134 36.58153486 C270.11801766 36.58071593 266.57954323 36.60282083 263.04100037 36.62176514 C256.11613231 36.65492627 249.19140048 36.66598138 242.26645964 36.66821465 C236.63787667 36.67011764 231.00933852 36.67834829 225.38076973 36.69101715 C209.41558856 36.72621969 193.45051477 36.74469746 177.48529451 36.74169526 C176.62542809 36.74153543 175.76556166 36.74137561 174.87963867 36.74121094 C174.01872057 36.74104741 173.15780247 36.74088389 172.27079595 36.74071541 C158.30815117 36.73908844 144.34593728 36.77740049 130.38341718 36.8337644 C116.03985195 36.89120914 101.69649698 36.918846 87.35281378 36.9153893 C79.30249252 36.91406141 71.25262351 36.92504962 63.20240593 36.9681015 C56.35112461 37.00450794 49.50050073 37.01323484 42.64916461 36.98606381 C39.15419655 36.97299623 35.66049005 36.97279206 32.16564178 37.00747681 C28.37511815 37.03825798 24.58791978 37.01985582 20.79747009 36.98895264 C19.69494193 37.00952689 18.59241378 37.03010114 17.45647568 37.05129886 C10.19243009 36.92019116 10.19243009 36.92019116 6.78880608 34.29363489 C-3.01253737 23.43904366 0 17.49741801 0 0 Z " fill="#867165" transform="translate(102,301)"/>
<path d="M0 0 C4.21193175 0.8432381 8.08568157 2.05644312 12.11328125 3.5234375 C12.85980957 3.79075684 13.60633789 4.05807617 14.37548828 4.33349609 C19.4233044 6.1701556 24.29927083 8.26027962 29.16737366 10.53196716 C30.05702316 10.94165237 30.94667267 11.35133759 31.86328125 11.7734375 C32.6415477 12.13369522 33.41981415 12.49395294 34.22166443 12.86512756 C41.57210332 15.90820466 48.45997044 16.31169208 56.31398201 16.22872734 C58.51495714 16.20648535 60.71458492 16.21066885 62.91563416 16.22120667 C68.37573865 16.24266882 73.83552656 16.22558213 79.29559326 16.19970703 C83.92884485 16.17818205 88.56121801 16.17651454 93.1944561 16.20262337 C95.34515922 16.2069247 97.49426652 16.18249755 99.64479065 16.15708923 C109.01143721 16.14776893 116.04472894 17.69620093 123.30078125 23.8359375 C123.81640625 24.4753125 124.33203125 25.1146875 124.86328125 25.7734375 C125.39953125 26.4128125 125.93578125 27.0521875 126.48828125 27.7109375 C129.39264816 32.06748786 130.37763256 36.70804908 131.48828125 41.7734375 C132.80373059 47.62665125 134.29045295 53.42080189 135.90234375 59.19921875 C136.08290314 59.84672089 136.26346252 60.49422302 136.44949341 61.16134644 C137.36476205 64.43363297 138.2890783 67.70317778 139.22119141 70.97070312 C139.73238525 72.78538086 139.73238525 72.78538086 140.25390625 74.63671875 C140.56360352 75.72251221 140.87330078 76.80830566 141.19238281 77.92700195 C141.86328125 80.7734375 141.86328125 80.7734375 141.86328125 84.7734375 C138.23328125 84.7734375 134.60328125 84.7734375 130.86328125 84.7734375 C130.60933594 83.73445313 130.35539063 82.69546875 130.09375 81.625 C127.83347524 68.20309898 127.83347524 68.20309898 121.86328125 56.7734375 C118.36328125 56.35677083 118.36328125 56.35677083 114.86328125 56.7734375 C109.65644813 64.58368718 112.23845131 75.39418601 111.86328125 84.7734375 C94.70328125 84.7734375 77.54328125 84.7734375 59.86328125 84.7734375 C59.53328125 67.2834375 59.20328125 49.7934375 58.86328125 31.7734375 C55.93587795 30.30973585 53.05666966 30.38426028 49.80078125 30.0859375 C41.31779681 29.15741806 33.82490434 26.61889983 25.90185547 23.55371094 C22.72249331 22.33679579 19.51174845 21.21680108 16.30078125 20.0859375 C11.47124236 18.35636579 6.64915455 16.62061667 1.86328125 14.7734375 C1.21488281 14.52851563 0.56648437 14.28359375 -0.1015625 14.03125 C-3.5921511 12.64643571 -4.99595808 11.98457851 -7.13671875 8.7734375 C-7.64123524 5.49408031 -7.41194628 4.19178334 -5.57421875 1.3984375 C-3.13671875 -0.2265625 -3.13671875 -0.2265625 0 0 Z " fill="#BF943F" transform="translate(235.13671875,207.2265625)"/>
<path d="M0 0 C26.73 0 53.46 0 81 0 C81 19.47 81 38.94 81 59 C54.27 59 27.54 59 0 59 C0 39.53 0 20.06 0 0 Z " fill="#5D4E45" transform="translate(210,345)"/>
<path d="M0 0 C1.04750842 -0.00199105 2.09501685 -0.0039821 3.17426795 -0.00603348 C4.32892296 -0.00312064 5.48357798 -0.0002078 6.67322254 0.00279331 C7.89676797 0.00193889 9.1203134 0.00108446 10.38093597 0.00020415 C13.78324983 -0.00116118 17.18550653 0.0019755 20.5878135 0.00698221 C24.25446169 0.01129173 27.92110805 0.00983993 31.58775806 0.00907993 C37.94252092 0.00855502 44.29727353 0.01169845 50.65203381 0.01731777 C59.84000427 0.02543714 69.02796977 0.02804844 78.21594343 0.02930576 C93.12201946 0.03149559 108.02809003 0.03815382 122.93416309 0.04760838 C137.41593365 0.05678427 151.89770272 0.06386424 166.37947559 0.06811619 C167.2717991 0.06837891 168.16412261 0.06864164 169.08348622 0.06891232 C173.55991161 0.07021734 178.03633702 0.07148105 182.51276243 0.07272422 C219.66226638 0.08309469 256.81176412 0.10071114 293.9612627 0.12304783 C293.9612627 0.45304783 293.9612627 0.78304783 293.9612627 1.12304783 C293.35202579 1.12212604 292.74278888 1.12120424 292.11509025 1.12025452 C256.0156566 1.06664904 219.91643208 1.0546326 183.81697857 1.09670746 C179.48356317 1.10172216 175.15014746 1.10638898 170.81673145 1.1108408 C169.95401765 1.11173293 169.09130384 1.11262506 168.20244719 1.11354423 C154.2290417 1.1271643 140.2558003 1.11259609 126.28241657 1.08763087 C111.94696438 1.06264545 97.61175397 1.06790512 83.27631772 1.10130692 C74.42870518 1.12096674 65.58175024 1.11696764 56.73417909 1.08281153 C50.66900972 1.06165568 44.60432479 1.0698489 38.5392013 1.1012066 C35.0383602 1.11843709 31.53876697 1.12264521 28.03798962 1.09202862 C24.24227583 1.0655783 20.4499193 1.08808233 16.65434742 1.12304783 C15.54734041 1.10363605 14.4403334 1.08422426 13.29978073 1.06422424 C7.65920476 1.109615 7.65920476 1.109615 2.94460225 3.86523533 C-1.13842778 9.13771967 -2.16286579 13.32810438 -2.19695568 19.97563267 C-2.20189366 20.6764834 -2.20683164 21.37733412 -2.21191925 22.09942275 C-2.22730546 24.45324263 -2.2356579 26.80703521 -2.24405956 29.16088963 C-2.25363721 30.84604222 -2.26364722 32.53119241 -2.27405834 34.21634007 C-2.3011258 38.79657947 -2.32212541 43.37682919 -2.34206033 47.95710444 C-2.36390851 52.74175228 -2.39130291 57.52636822 -2.41811657 62.31099033 C-2.46805925 71.37381902 -2.51299224 80.43666539 -2.55613893 89.49952871 C-2.60549784 99.81623077 -2.66042097 110.13290084 -2.71581852 120.44957197 C-2.82966276 141.6740343 -2.93629912 162.89852765 -3.0387373 184.12304783 C-8.6487373 184.12304783 -14.2587373 184.12304783 -20.0387373 184.12304783 C-20.17769359 161.96566323 -20.2847367 139.80838376 -20.34961033 117.65065098 C-20.38053439 107.36216482 -20.42268727 97.07395455 -20.49137402 86.78564548 C-20.55122033 77.81722547 -20.58989699 68.84900527 -20.60326827 59.88039112 C-20.61108319 55.13247278 -20.62941962 50.38512604 -20.67311764 45.63739109 C-20.71394146 41.16556723 -20.72638675 36.69454863 -20.71738338 32.22255611 C-20.71902968 30.58428854 -20.73090694 28.94599314 -20.75397015 27.30788708 C-20.95395622 12.36655974 -20.95395622 12.36655974 -15.63856983 6.52729893 C-10.78274852 2.26510757 -6.5763195 -0.00275275 0 0 Z " fill="#C8B3A5" transform="translate(105.0387372970581,107.87695217132568)"/>
<path d="M0 0 C6.34297473 4.42314261 11.15206516 10.11203923 12.6328125 17.8359375 C13.47959483 26.55421752 12.95990138 34.27133386 7.7109375 41.47265625 C1.91071727 48.32291634 -4.18963782 53.10980407 -13.375 54.0390625 C-22.23706609 54.23527061 -28.91078755 52.4666636 -35.7421875 46.6484375 C-42.21162543 40.41258995 -45.43033309 33.71394402 -45.6796875 24.7109375 C-45.58013651 16.41502184 -42.73679349 9.44626322 -37.078125 3.37109375 C-26.40708974 -6.20360227 -12.45260445 -7.07307933 0 0 Z " fill="#61482B" transform="translate(342.3671875,155.1640625)"/>
<path d="M0 0 C3.92232318 2.6945232 6.54744607 5.0943283 8.30859375 9.5859375 C9.39348604 16.37766044 9.86976872 23.34231652 5.80859375 29.2109375 C4.12890625 31 4.12890625 31 2.30859375 32.5859375 C1.43847656 33.37097656 1.43847656 33.37097656 0.55078125 34.171875 C-4.29027669 37.83811553 -8.88614311 38.28551297 -14.859375 38 C-21.4610131 37.03479498 -25.31631444 33.32133963 -29.52734375 28.3671875 C-32.70416941 23.50600462 -32.23914045 17.15585431 -31.69140625 11.5859375 C-29.67082996 4.72752425 -25.51271312 0.75478734 -19.37890625 -2.7265625 C-12.15873936 -4.57358194 -6.50124681 -3.67153096 0 0 Z " fill="#F1DD97" transform="translate(337.69140625,162.4140625)"/>
<path d="M0 0 C5.61 0 11.22 0 17 0 C17.01417969 1.6396875 17.02835938 3.279375 17.04296875 4.96875 C17.08988924 7.14586078 17.1381365 9.32294324 17.1875 11.5 C17.19330078 12.57765625 17.19910156 13.6553125 17.20507812 14.765625 C17.40104527 21.90753866 18.53048528 26.40439534 23 32 C23.598125 32.825 24.19625 33.65 24.8125 34.5 C25.204375 34.995 25.59625 35.49 26 36 C18.49656724 36.45020597 12.12173676 36.77305401 6 32 C0.85109111 26.41010364 -0.6715649 21.55673995 -0.52734375 14.03320312 C-0.47707031 13.01162109 -0.42679687 11.99003906 -0.375 10.9375 C-0.34792969 9.88111328 -0.32085937 8.82472656 -0.29296875 7.73632812 C-0.22293235 5.15665421 -0.11533924 2.57804567 0 0 Z " fill="#5E4F46" transform="translate(85,301)"/>
<path d="M0 0 C0.67968338 -0.00335861 1.35936676 -0.00671722 2.05964661 -0.01017761 C4.31720788 -0.01971378 6.5746952 -0.02163206 8.83227539 -0.02270508 C10.39547253 -0.02591584 11.95866936 -0.02927977 13.52186584 -0.03279114 C16.80299578 -0.0387891 20.08409934 -0.04063036 23.36523438 -0.04003906 C27.57668608 -0.03993741 31.78796931 -0.05358997 35.99938107 -0.07081127 C39.22922039 -0.08191142 42.45901874 -0.08395888 45.6888752 -0.08342934 C47.24186344 -0.08461244 48.79485263 -0.08905263 50.34782219 -0.0967617 C52.51715887 -0.10652171 54.68612656 -0.10369961 56.85546875 -0.09765625 C58.0915538 -0.09908127 59.32763885 -0.10050629 60.60118103 -0.10197449 C63.49243164 0.14526367 63.49243164 0.14526367 65.49243164 2.14526367 C64.93687609 6.70081923 64.93687609 6.70081923 63.49243164 8.14526367 C61.35586122 8.25005273 59.21578827 8.28383021 57.07666016 8.29052734 C56.07176544 8.29556526 56.07176544 8.29556526 55.04656982 8.30070496 C52.8214739 8.31024088 50.59645301 8.31215939 48.37133789 8.31323242 C46.830561 8.3164432 45.28978442 8.31980713 43.74900818 8.32331848 C40.51495659 8.32931639 37.28093176 8.33115771 34.046875 8.33056641 C29.89595644 8.33046475 25.74520881 8.34411721 21.59433079 8.36133862 C18.41081448 8.37243907 15.22733976 8.37448622 12.04380608 8.37395668 C10.51314645 8.37513975 8.98248584 8.3795797 7.45184517 8.38728905 C5.31363976 8.39704966 3.17580866 8.39422673 1.03759766 8.38818359 C-0.1807225 8.38960861 -1.39904266 8.39103363 -2.65428162 8.39250183 C-5.50756836 8.14526367 -5.50756836 8.14526367 -7.50756836 6.14526367 C-7.69506836 3.58276367 -7.69506836 3.58276367 -7.50756836 1.14526367 C-5.63956473 -0.72273996 -2.49117317 0.00768714 0 0 Z " fill="#5F4528" transform="translate(155.507568359375,256.854736328125)"/>
<path d="M0 0 C0.99026436 -0.00503792 0.99026436 -0.00503792 2.00053406 -0.01017761 C4.19316465 -0.01971328 6.38571908 -0.02163203 8.57836914 -0.02270508 C10.09672579 -0.02591588 11.61508213 -0.02927981 13.13343811 -0.03279114 C16.32041135 -0.03878898 19.50735745 -0.04063037 22.69433594 -0.04003906 C26.78472139 -0.03993741 30.87493336 -0.05358976 34.96527767 -0.07081127 C38.10247095 -0.08191204 41.23962205 -0.08395887 44.37683296 -0.08342934 C45.88516399 -0.08461236 47.393496 -0.08905208 48.90180779 -0.0967617 C51.00888198 -0.10652294 53.11557637 -0.10369915 55.22265625 -0.09765625 C57.02348915 -0.09979378 57.02348915 -0.09979378 58.86070251 -0.10197449 C61.67602539 0.14526367 61.67602539 0.14526367 63.67602539 2.14526367 C63.12046984 6.70081923 63.12046984 6.70081923 61.67602539 8.14526367 C59.56464638 8.2447456 57.44990253 8.27326005 55.33618164 8.2746582 C54.34350784 8.27728668 54.34350784 8.27728668 53.33078003 8.27996826 C51.13333549 8.28438584 48.93597081 8.28144914 46.73852539 8.27807617 C45.21777328 8.27874924 43.69702127 8.27971929 42.17626953 8.28097534 C38.98509703 8.28245219 35.79395247 8.28029819 32.6027832 8.27563477 C28.50338009 8.26993748 24.40404243 8.27321655 20.30464172 8.27920723 C17.16320295 8.28281321 14.02177981 8.28167409 10.88034058 8.27907944 C9.36839795 8.27841027 7.85645393 8.27923824 6.34451294 8.28155899 C4.23492652 8.28408612 2.12544752 8.28024411 0.01586914 8.2746582 C-1.18690674 8.27386261 -2.38968262 8.27306702 -3.62890625 8.27224731 C-6.32397461 8.14526367 -6.32397461 8.14526367 -7.32397461 7.14526367 C-7.44897461 4.14526367 -7.44897461 4.14526367 -7.32397461 1.14526367 C-5.47796149 -0.70074945 -2.47091969 0.00785044 0 0 Z " fill="#5E4427" transform="translate(118.323974609375,178.854736328125)"/>
<path d="M0 0 C1.27479721 -0.00637985 2.54959442 -0.0127597 3.86302185 -0.01933289 C5.26553306 -0.02086144 6.66804478 -0.02197547 8.07055664 -0.02270508 C9.49923232 -0.02591598 10.92790767 -0.02927992 12.35658264 -0.03279114 C15.35524254 -0.03878872 18.35387359 -0.0406304 21.35253906 -0.04003906 C25.20079238 -0.03993742 29.04886129 -0.0535893 32.89707088 -0.07081127 C35.84897211 -0.08191339 38.80082852 -0.08395882 41.75274849 -0.08342934 C43.17176512 -0.08461217 44.59078281 -0.08905087 46.00977898 -0.0967617 C47.99217238 -0.10652487 49.97461955 -0.10242885 51.95703125 -0.09765625 C53.6512748 -0.09979378 53.6512748 -0.09979378 55.37974548 -0.10197449 C58.04321289 0.14526367 58.04321289 0.14526367 60.04321289 2.14526367 C59.48765734 6.70081923 59.48765734 6.70081923 58.04321289 8.14526367 C56.05433795 8.244569 54.06190872 8.27325829 52.07055664 8.2746582 C50.79253174 8.27781036 49.51450684 8.28096252 48.19775391 8.28421021 C46.79207322 8.28242042 45.38639285 8.28036947 43.98071289 8.27807617 C42.54964176 8.27874925 41.11857074 8.27971932 39.6875 8.28097534 C36.68464065 8.28245211 33.68181099 8.28029844 30.67895508 8.27563477 C26.82168718 8.26993748 22.96448885 8.27321659 19.10722351 8.27920723 C16.15107698 8.28281341 13.19494707 8.281674 10.23880005 8.27907944 C8.8161722 8.27841033 7.39354286 8.27923804 5.97091675 8.28155899 C3.98590116 8.28408641 2.0008803 8.2795541 0.01586914 8.2746582 C-1.68170532 8.27346481 -1.68170532 8.27346481 -3.41357422 8.27224731 C-5.95678711 8.14526367 -5.95678711 8.14526367 -6.95678711 7.14526367 C-7.08178711 4.14526367 -7.08178711 4.14526367 -6.95678711 1.14526367 C-5.15633754 -0.6551859 -2.427553 0.00819823 0 0 Z " fill="#5E4427" transform="translate(202.956787109375,140.854736328125)"/>
<path d="M0 0 C1.37152222 -0.00945648 1.37152222 -0.00945648 2.77075195 -0.019104 C3.76034912 -0.01505554 4.74994629 -0.01100708 5.76953125 -0.00683594 C6.78297607 -0.00874939 7.7964209 -0.01066284 8.84057617 -0.01263428 C10.98584237 -0.01399685 13.13111678 -0.01029541 15.27636719 -0.00195312 C18.56854697 0.00874524 21.86018103 -0.00184613 25.15234375 -0.01464844 C27.23307413 -0.01332686 29.31380416 -0.01076449 31.39453125 -0.00683594 C32.38412842 -0.0108844 33.37372559 -0.01493286 34.39331055 -0.019104 C35.30765869 -0.01279968 36.22200684 -0.00649536 37.1640625 0 C38.37412964 0.00238678 38.37412964 0.00238678 39.60864258 0.00482178 C41.58203125 0.25878906 41.58203125 0.25878906 43.58203125 2.25878906 C43.83203125 4.75878906 43.83203125 4.75878906 43.58203125 7.25878906 C41.14074456 9.70007575 40.51122311 9.51097607 37.1640625 9.51757812 C35.79254028 9.52703461 35.79254028 9.52703461 34.39331055 9.53668213 C32.90891479 9.53060944 32.90891479 9.53060944 31.39453125 9.52441406 C30.38108643 9.52632751 29.3676416 9.52824097 28.32348633 9.5302124 C26.17822013 9.53157497 24.03294572 9.52787353 21.88769531 9.51953125 C18.59551553 9.50883288 15.30388147 9.51942425 12.01171875 9.53222656 C9.93098837 9.53090498 7.85025834 9.52834262 5.76953125 9.52441406 C4.77993408 9.52846252 3.79033691 9.53251099 2.77075195 9.53668213 C1.85640381 9.53037781 0.94205566 9.52407349 0 9.51757812 C-0.80671143 9.51598694 -1.61342285 9.51439575 -2.44458008 9.51275635 C-4.41796875 9.25878906 -4.41796875 9.25878906 -6.41796875 7.25878906 C-6.66796875 4.75878906 -6.66796875 4.75878906 -6.41796875 2.25878906 C-3.97668206 -0.18249762 -3.34716061 0.00660206 0 0 Z " fill="#664D31" transform="translate(140.41796875,218.7412109375)"/>
<path d="M0 0 C0.71353638 0.00202423 1.42707275 0.00404846 2.16223145 0.00613403 C2.89091431 0.00517731 3.61959717 0.00422058 4.37036133 0.00323486 C5.91377855 0.00255318 7.45719861 0.00440666 9.00061035 0.00857544 C11.37095544 0.01392391 13.74111104 0.00863011 16.1114502 0.00222778 C17.60754437 0.00288857 19.10363842 0.00416973 20.59973145 0.00613403 C21.31326782 0.0041098 22.0268042 0.00208557 22.76196289 0 C27.76602953 0.02399462 27.76602953 0.02399462 28.88098145 1.13894653 C29.06848145 3.57644653 29.06848145 3.57644653 28.88098145 6.13894653 C26.44020292 8.57972506 25.13215786 8.37510834 21.8011322 8.39118958 C21.11463089 8.38400406 20.42812958 8.37681854 19.7208252 8.36941528 C19.01575333 8.36895706 18.31068146 8.36849884 17.58424377 8.36802673 C16.09386512 8.36500516 14.60348961 8.35712164 13.11315918 8.34475708 C10.82406511 8.32649109 8.53537517 8.32424745 6.24621582 8.32449341 C4.80024876 8.31957859 3.35428445 8.31375043 1.9083252 8.30691528 C0.87553688 8.30524605 0.87553688 8.30524605 -0.17811584 8.30354309 C-5.00296356 8.25500153 -5.00296356 8.25500153 -6.11901855 7.13894653 C-6.24401855 4.13894653 -6.24401855 4.13894653 -6.11901855 1.13894653 C-4.41408974 -0.56598228 -2.27367595 0.01090233 0 0 Z " fill="#5F4528" transform="translate(117.1190185546875,140.86105346679688)"/>
<path d="M0 0 C1.21880859 -0.01224609 2.43761719 -0.02449219 3.69335938 -0.03710938 C5.43649414 -0.04000977 5.43649414 -0.04000977 7.21484375 -0.04296875 C8.28726318 -0.04707764 9.35968262 -0.05118652 10.46459961 -0.05541992 C13.0625 0.1875 13.0625 0.1875 15.0625 2.1875 C14.50694444 6.74305556 14.50694444 6.74305556 13.0625 8.1875 C11.14791718 8.28721786 9.22967683 8.31830589 7.3125 8.3203125 C6.1471875 8.32160156 4.981875 8.32289063 3.78125 8.32421875 C2.5540625 8.32035156 1.326875 8.31648438 0.0625 8.3125 C-1.77828125 8.31830078 -1.77828125 8.31830078 -3.65625 8.32421875 C-4.8215625 8.32292969 -5.986875 8.32164062 -7.1875 8.3203125 C-8.26515625 8.31918457 -9.3428125 8.31805664 -10.453125 8.31689453 C-12.9375 8.1875 -12.9375 8.1875 -13.9375 7.1875 C-14.0625 4.1875 -14.0625 4.1875 -13.9375 1.1875 C-11.29209403 -1.45790597 -3.56345815 0.00187847 0 0 Z " fill="#61482B" transform="translate(124.9375,256.8125)"/>
<path d="M0 0 C1.21880859 -0.01224609 2.43761719 -0.02449219 3.69335938 -0.03710938 C5.43649414 -0.04000977 5.43649414 -0.04000977 7.21484375 -0.04296875 C8.28726318 -0.04707764 9.35968262 -0.05118652 10.46459961 -0.05541992 C13.0625 0.1875 13.0625 0.1875 15.0625 2.1875 C14.50694444 6.74305556 14.50694444 6.74305556 13.0625 8.1875 C11.14791718 8.28721786 9.22967683 8.31830589 7.3125 8.3203125 C6.1471875 8.32160156 4.981875 8.32289063 3.78125 8.32421875 C2.5540625 8.32035156 1.326875 8.31648437 0.0625 8.3125 C-1.77828125 8.31830078 -1.77828125 8.31830078 -3.65625 8.32421875 C-4.8215625 8.32292969 -5.986875 8.32164062 -7.1875 8.3203125 C-8.26515625 8.31918457 -9.3428125 8.31805664 -10.453125 8.31689453 C-12.9375 8.1875 -12.9375 8.1875 -13.9375 7.1875 C-14.0625 4.1875 -14.0625 4.1875 -13.9375 1.1875 C-11.29209403 -1.45790597 -3.56345815 0.00187847 0 0 Z " fill="#5F4629" transform="translate(231.9375,178.8125)"/>
<path d="M0 0 C1.03447266 0.01160156 1.03447266 0.01160156 2.08984375 0.0234375 C2.77949219 0.01570312 3.46914062 0.00796875 4.1796875 0 C9.33651082 0.02010457 9.33651082 0.02010457 11.58984375 2.2734375 C11.83984375 4.7734375 11.83984375 4.7734375 11.58984375 7.2734375 C9.09773936 9.76554189 7.58623587 9.53359411 4.1796875 9.546875 C3.14521484 9.53527344 3.14521484 9.53527344 2.08984375 9.5234375 C1.40019531 9.53117188 0.71054688 9.53890625 0 9.546875 C-5.15682332 9.52677043 -5.15682332 9.52677043 -7.41015625 7.2734375 C-7.66015625 4.7734375 -7.66015625 4.7734375 -7.41015625 2.2734375 C-4.91805186 -0.21866689 -3.40654837 0.01328089 0 0 Z " fill="#674E32" transform="translate(204.41015625,218.7265625)"/>
<path d="M0 0 C0.69416016 -0.01224609 1.38832031 -0.02449219 2.10351562 -0.03710938 C3.92470901 -0.04239842 5.7453692 0.06580793 7.5625 0.1875 C8.2225 0.8475 8.8825 1.5075 9.5625 2.1875 C9.00694444 6.74305556 9.00694444 6.74305556 7.5625 8.1875 C5.07011431 8.31403198 2.61779559 8.37269825 0.125 8.375 C-0.91624023 8.39336914 -0.91624023 8.39336914 -1.97851562 8.41210938 C-3.79970901 8.41739842 -5.6203692 8.30919207 -7.4375 8.1875 C-8.0975 7.5275 -8.7575 6.8675 -9.4375 6.1875 C-8.60395461 -0.6475722 -6.21240276 0.00573629 0 0 Z " fill="#61472A" transform="translate(253.4375,256.8125)"/>
<path d="M0 0 C1.8871875 -0.00386719 1.8871875 -0.00386719 3.8125 -0.0078125 C7 0.125 7 0.125 9 1.125 C9.125 3.5 9.125 3.5 9 6.125 C7 8.125 7 8.125 3.8125 8.390625 C1.9253125 8.38289062 1.9253125 8.38289062 0 8.375 C-1.258125 8.38015625 -2.51625 8.3853125 -3.8125 8.390625 C-7 8.125 -7 8.125 -9 6.125 C-9.125 3.5 -9.125 3.5 -9 1.125 C-6.02760209 -0.36119895 -3.30380422 -0.00677009 0 0 Z " fill="#60472A" transform="translate(164,140.875)"/>
<path d="M0 0 C1.31291016 -0.02513672 1.31291016 -0.02513672 2.65234375 -0.05078125 C5.0625 0.3125 5.0625 0.3125 6.890625 1.66796875 C8.0625 3.3125 8.0625 3.3125 7.875 5.9375 C7.0625 8.3125 7.0625 8.3125 5.0625 9.3125 C3.39904418 9.43332534 1.73029409 9.4878794 0.0625 9.5 C-1.2678125 9.52126953 -1.2678125 9.52126953 -2.625 9.54296875 C-4.9375 9.3125 -4.9375 9.3125 -6.9375 7.3125 C-7.1875 4.8125 -7.1875 4.8125 -6.9375 2.3125 C-4.42737037 -0.19762963 -3.46944763 0.01528391 0 0 Z " fill="#674E32" transform="translate(117.9375,218.6875)"/>
<path d="M0 0 C2.5625 0.1875 2.5625 0.1875 4.5625 2.1875 C4.00694444 6.74305556 4.00694444 6.74305556 2.5625 8.1875 C0.125 8.375 0.125 8.375 -2.4375 8.1875 C-3.0975 7.5275 -3.7575 6.8675 -4.4375 6.1875 C-3.71780303 0.28598485 -3.71780303 0.28598485 0 0 Z " fill="#685034" transform="translate(184.4375,140.8125)"/>
<path d="M0 0 C3 0.125 3 0.125 4 1.125 C4.125 4.125 4.125 4.125 4 7.125 C3 8.125 3 8.125 0.5625 8.3125 C-2 8.125 -2 8.125 -4 6.125 C-4.1875 3.5625 -4.1875 3.5625 -4 1.125 C-3 0.125 -3 0.125 0 0 Z " fill="#685034" transform="translate(232,256.875)"/>
<path d="M0 0 C2.5625 0.1875 2.5625 0.1875 4.5625 2.1875 C4.00694444 6.74305556 4.00694444 6.74305556 2.5625 8.1875 C0.0625 8.3125 0.0625 8.3125 -2.4375 8.1875 C-3.4375 7.1875 -3.4375 7.1875 -3.5625 4.1875 C-3.39891479 0.26145498 -3.39891479 0.26145498 0 0 Z " fill="#654C30" transform="translate(258.4375,178.8125)"/>
</svg>
